<svg xmlns="http://www.w3.org/2000/svg" xmlns:xlink="http://www.w3.org/1999/xlink" viewBox="0 0 48 48"><defs><clipPath id="a"><path d="M25.55,23.16a6.54,6.54,0,0,0-1.37,1.61c-.5.76-.54,1.18-.5,1.29s.46.39.84.54A9.24,9.24,0,0,0,25.55,23.16Zm-8-13.76A1.56,1.56,0,0,1,19.06,11c0,.46-.39,11.12-1.42,18.11a1.52,1.52,0,0,1-1.53,1.3h-.23a1.53,1.53,0,0,1-1.29-1.75C15.62,21.82,16,11,16,10.89A1.57,1.57,0,0,1,17.57,9.4Zm28.32,10c.22.3,2.29,3.17,2.1,6-.19,3.48-2.87,5.62-9.52,7.76l-.46,0a1.53,1.53,0,0,1-.46-3c7.23-2.29,7.34-4.05,7.38-5a7.86,7.86,0,0,0-1.53-4,1.53,1.53,0,0,1,2.49-1.79ZM35.07,32.64a1.53,1.53,0,0,1-1.18,1.83,35,35,0,0,1-6.32.92h-.11a1.55,1.55,0,0,1-.07-3.1,38.75,38.75,0,0,0,5.85-.84A1.53,1.53,0,0,1,35.07,32.64ZM11,20.06a1.56,1.56,0,0,1,1.49,1.57v.08c0,1-.75,9.82-10.09,16.62a1.69,1.69,0,0,1-.92.27A1.55,1.55,0,0,1,.29,38a1.53,1.53,0,0,1,.35-2.14c8.44-6.15,8.82-14,8.82-14.3A1.54,1.54,0,0,1,11,20.06ZM36,19.34a1.56,1.56,0,0,1,1.49,1.57,10.09,10.09,0,0,1-3.33,6.91,10.62,10.62,0,0,1-8,2.14,35.82,35.82,0,0,1-7.91,8.3,1.56,1.56,0,0,1-1,.34A1.41,1.41,0,0,1,16.08,38a1.49,1.49,0,0,1,.26-2.14A33.1,33.1,0,0,0,23,29.24a4.06,4.06,0,0,1-2-1.91c-.38-.88-.61-2.34.72-4.28,1.91-2.83,3.83-3.48,4.55-3.64a1.91,1.91,0,0,1,2.22,1.34,9.47,9.47,0,0,1-.73,6.19,6.84,6.84,0,0,0,4.4-1.45,6.81,6.81,0,0,0,2.25-4.66A1.56,1.56,0,0,1,36,19.34Z" style="fill:#a62626;clip-rule:evenodd"/></clipPath></defs><title>Untitled-1</title><path d="M25.55,23.16a6.54,6.54,0,0,0-1.37,1.61c-.5.76-.54,1.18-.5,1.29s.46.39.84.54A9.24,9.24,0,0,0,25.55,23.16Zm-8-13.76A1.56,1.56,0,0,1,19.06,11c0,.46-.39,11.12-1.42,18.11a1.52,1.52,0,0,1-1.53,1.3h-.23a1.53,1.53,0,0,1-1.29-1.75C15.62,21.82,16,11,16,10.89A1.57,1.57,0,0,1,17.57,9.4Zm28.32,10c.22.3,2.29,3.17,2.1,6-.19,3.48-2.87,5.62-9.52,7.76l-.46,0a1.53,1.53,0,0,1-.46-3c7.23-2.29,7.34-4.05,7.38-5a7.86,7.86,0,0,0-1.53-4,1.53,1.53,0,0,1,2.49-1.79ZM35.07,32.64a1.53,1.53,0,0,1-1.18,1.83,35,35,0,0,1-6.32.92h-.11a1.55,1.55,0,0,1-.07-3.1,38.75,38.75,0,0,0,5.85-.84A1.53,1.53,0,0,1,35.07,32.64ZM11,20.06a1.56,1.56,0,0,1,1.49,1.57v.08c0,1-.75,9.82-10.09,16.62a1.69,1.69,0,0,1-.92.27A1.55,1.55,0,0,1,.29,38a1.53,1.53,0,0,1,.35-2.14c8.44-6.15,8.82-14,8.82-14.3A1.54,1.54,0,0,1,11,20.06ZM36,19.34a1.56,1.56,0,0,1,1.49,1.57,10.09,10.09,0,0,1-3.33,6.91,10.62,10.62,0,0,1-8,2.14,35.82,35.82,0,0,1-7.91,8.3,1.56,1.56,0,0,1-1,.34A1.41,1.41,0,0,1,16.08,38a1.49,1.49,0,0,1,.26-2.14A33.1,33.1,0,0,0,23,29.24a4.06,4.06,0,0,1-2-1.91c-.38-.88-.61-2.34.72-4.28,1.91-2.83,3.83-3.48,4.55-3.64a1.91,1.91,0,0,1,2.22,1.34,9.47,9.47,0,0,1-.73,6.19,6.84,6.84,0,0,0,4.4-1.45,6.81,6.81,0,0,0,2.25-4.66A1.56,1.56,0,0,1,36,19.34Z" style="fill:#a62626;fill-rule:evenodd"/><g style="clip-path:url(#a)"><rect x="-10.91" y="-1.51" width="69.82" height="51.02" style="fill:#a62626;opacity:0.5600000023841858"/></g></svg>